<mxfile host="app.diagrams.net" modified="2025-10-26T00:00:00.000Z" agent="5.0" version="22.1.11" etag="screenflow" type="device">
  <diagram name="DSS Screenflow Diagram" id="screenflow-diagram">
    <mxGraphModel dx="1422" dy="794" grid="1" gridSize="10" guides="1" tooltips="1" connect="1" arrows="1" fold="1" page="1" pageScale="1" pageWidth="1600" pageHeight="1400" math="0" shadow="0">
      <root>
        <mxCell id="0" />
        <mxCell id="1" parent="0" />
        
        <!-- Title -->
        <mxCell id="title" value="DSS Application - Screen Flow Diagram" style="text;html=1;strokeColor=none;fillColor=none;align=center;verticalAlign=middle;whiteSpace=wrap;rounded=0;fontSize=26;fontStyle=1;fontColor=#1A1A1A;" vertex="1" parent="1">
          <mxGeometry x="400" y="20" width="800" height="50" as="geometry" />
        </mxCell>
        
        <!-- Subtitle -->
        <mxCell id="subtitle" value="User Journey and Navigation Flow" style="text;html=1;strokeColor=none;fillColor=none;align=center;verticalAlign=middle;whiteSpace=wrap;rounded=0;fontSize=14;fontColor=#666666;" vertex="1" parent="1">
          <mxGeometry x="400" y="70" width="800" height="30" as="geometry" />
        </mxCell>
        
        <!-- START -->
        <mxCell id="start" value="START" style="ellipse;whiteSpace=wrap;html=1;fillColor=#f5f5f5;strokeColor=#666666;fontStyle=1;fontSize=14;" vertex="1" parent="1">
          <mxGeometry x="740" y="120" width="120" height="60" as="geometry" />
        </mxCell>
        
        <!-- LOGIN SCREEN -->
        <mxCell id="login-screen" value="" style="rounded=1;whiteSpace=wrap;html=1;fillColor=#fff2cc;strokeColor=#d6b656;strokeWidth=3;" vertex="1" parent="1">
          <mxGeometry x="650" y="220" width="300" height="180" as="geometry" />
        </mxCell>
        
        <mxCell id="login-title" value="🔐 Login Screen" style="text;html=1;strokeColor=none;fillColor=none;align=center;verticalAlign=middle;whiteSpace=wrap;rounded=0;fontSize=16;fontStyle=1;fontColor=#d79b00;" vertex="1" parent="1">
          <mxGeometry x="650" y="230" width="300" height="30" as="geometry" />
        </mxCell>
        
        <mxCell id="login-route" value="Route: /login" style="text;html=1;strokeColor=none;fillColor=none;align=left;verticalAlign=middle;whiteSpace=wrap;rounded=0;fontSize=11;fontColor=#666666;fontFamily=Courier New;" vertex="1" parent="1">
          <mxGeometry x="670" y="260" width="260" height="20" as="geometry" />
        </mxCell>
        
        <mxCell id="login-content" value="• Username input&#xa;• Password input&#xa;• Remember me checkbox&#xa;• Login button&#xa;• Error/Success messages" style="text;html=1;strokeColor=none;fillColor=none;align=left;verticalAlign=top;whiteSpace=wrap;rounded=0;fontSize=11;fontColor=#1A1A1A;" vertex="1" parent="1">
          <mxGeometry x="670" y="285" width="260" height="100" as="geometry" />
        </mxCell>
        
        <!-- Arrow: Start -> Login -->
        <mxCell id="arrow-start-login" style="edgeStyle=orthogonalEdgeStyle;rounded=0;orthogonalLoop=1;jettySize=auto;html=1;strokeWidth=2;strokeColor=#666666;" edge="1" parent="1" source="start" target="login-screen">
          <mxGeometry relative="1" as="geometry" />
        </mxCell>
        
        <!-- DASHBOARD SCREEN -->
        <mxCell id="dashboard-screen" value="" style="rounded=1;whiteSpace=wrap;html=1;fillColor=#dae8fc;strokeColor=#6c8ebf;strokeWidth=3;" vertex="1" parent="1">
          <mxGeometry x="650" y="460" width="300" height="220" as="geometry" />
        </mxCell>
        
        <mxCell id="dashboard-title" value="📊 Dashboard (Home)" style="text;html=1;strokeColor=none;fillColor=none;align=center;verticalAlign=middle;whiteSpace=wrap;rounded=0;fontSize=16;fontStyle=1;fontColor=#1A5490;" vertex="1" parent="1">
          <mxGeometry x="650" y="470" width="300" height="30" as="geometry" />
        </mxCell>
        
        <mxCell id="dashboard-route" value="Route: /dashboard" style="text;html=1;strokeColor=none;fillColor=none;align=left;verticalAlign=middle;whiteSpace=wrap;rounded=0;fontSize=11;fontColor=#666666;fontFamily=Courier New;" vertex="1" parent="1">
          <mxGeometry x="670" y="500" width="260" height="20" as="geometry" />
        </mxCell>
        
        <mxCell id="dashboard-content" value="• Total Customers card&#xa;• Total Orders card&#xa;• Total Revenue card&#xa;• Active Products card&#xa;• Sales Trend chart&#xa;• Category Distribution chart&#xa;• Sidebar menu (navigation hub)" style="text;html=1;strokeColor=none;fillColor=none;align=left;verticalAlign=top;whiteSpace=wrap;rounded=0;fontSize=11;fontColor=#1A1A1A;" vertex="1" parent="1">
          <mxGeometry x="670" y="525" width="260" height="140" as="geometry" />
        </mxCell>
        
        <!-- Arrow: Login -> Dashboard -->
        <mxCell id="arrow-login-dashboard" style="edgeStyle=orthogonalEdgeStyle;rounded=0;orthogonalLoop=1;jettySize=auto;html=1;strokeWidth=3;strokeColor=#2D7D46;entryX=0.5;entryY=0;entryDx=0;entryDy=0;" edge="1" parent="1" source="login-screen" target="dashboard-screen">
          <mxGeometry relative="1" as="geometry" />
        </mxCell>
        
        <mxCell id="arrow-login-dashboard-label" value="Login Success" style="edgeLabel;html=1;align=center;verticalAlign=middle;resizable=0;points=[];fontSize=12;fontStyle=1;fontColor=#2D7D46;backgroundColor=#FFFFFF;" vertex="1" connectable="0" parent="arrow-login-dashboard">
          <mxGeometry x="-0.2" y="2" relative="1" as="geometry">
            <mxPoint as="offset" />
          </mxGeometry>
        </mxCell>
        
        <!-- MARKETING SEGMENTS SCREEN -->
        <mxCell id="marketing-segments-screen" value="" style="rounded=1;whiteSpace=wrap;html=1;fillColor=#e1d5e7;strokeColor=#9673a6;strokeWidth=2;" vertex="1" parent="1">
          <mxGeometry x="80" y="760" width="280" height="180" as="geometry" />
        </mxCell>
        
        <mxCell id="marketing-segments-title" value="👥 Marketing Segments" style="text;html=1;strokeColor=none;fillColor=none;align=center;verticalAlign=middle;whiteSpace=wrap;rounded=0;fontSize=14;fontStyle=1;fontColor=#6A3D85;" vertex="1" parent="1">
          <mxGeometry x="80" y="770" width="280" height="25" as="geometry" />
        </mxCell>
        
        <mxCell id="marketing-segments-route" value="Route: /marketing/segments" style="text;html=1;strokeColor=none;fillColor=none;align=left;verticalAlign=middle;whiteSpace=wrap;rounded=0;fontSize=10;fontColor=#666666;fontFamily=Courier New;" vertex="1" parent="1">
          <mxGeometry x="95" y="795" width="250" height="18" as="geometry" />
        </mxCell>
        
        <mxCell id="marketing-segments-content" value="• RFM Analysis table&#xa;• Customer segmentation&#xa;• Recency/Frequency/Monetary scores&#xa;• Segment labels&#xa;• Marketing recommendations&#xa;• Auto-load from API" style="text;html=1;strokeColor=none;fillColor=none;align=left;verticalAlign=top;whiteSpace=wrap;rounded=0;fontSize=10;fontColor=#1A1A1A;" vertex="1" parent="1">
          <mxGeometry x="95" y="815" width="250" height="110" as="geometry" />
        </mxCell>
        
        <!-- MARKETING RULES SCREEN -->
        <mxCell id="marketing-rules-screen" value="" style="rounded=1;whiteSpace=wrap;html=1;fillColor=#e1d5e7;strokeColor=#9673a6;strokeWidth=2;" vertex="1" parent="1">
          <mxGeometry x="400" y="760" width="280" height="180" as="geometry" />
        </mxCell>
        
        <mxCell id="marketing-rules-title" value="📋 Marketing Rules" style="text;html=1;strokeColor=none;fillColor=none;align=center;verticalAlign=middle;whiteSpace=wrap;rounded=0;fontSize=14;fontStyle=1;fontColor=#6A3D85;" vertex="1" parent="1">
          <mxGeometry x="400" y="770" width="280" height="25" as="geometry" />
        </mxCell>
        
        <mxCell id="marketing-rules-route" value="Route: /marketing/rules" style="text;html=1;strokeColor=none;fillColor=none;align=left;verticalAlign=middle;whiteSpace=wrap;rounded=0;fontSize=10;fontColor=#666666;fontFamily=Courier New;" vertex="1" parent="1">
          <mxGeometry x="415" y="795" width="250" height="18" as="geometry" />
        </mxCell>
        
        <mxCell id="marketing-rules-content" value="• Association rules table&#xa;• Antecedent → Consequent&#xa;• Support, Confidence, Lift metrics&#xa;• Generate New Rules button&#xa;• Market basket analysis&#xa;• Cross-sell opportunities" style="text;html=1;strokeColor=none;fillColor=none;align=left;verticalAlign=top;whiteSpace=wrap;rounded=0;fontSize=10;fontColor=#1A1A1A;" vertex="1" parent="1">
          <mxGeometry x="415" y="815" width="250" height="110" as="geometry" />
        </mxCell>
        
        <!-- SALES POLICY SCREEN -->
        <mxCell id="sales-policy-screen" value="" style="rounded=1;whiteSpace=wrap;html=1;fillColor=#d5e8d4;strokeColor=#82b366;strokeWidth=2;" vertex="1" parent="1">
          <mxGeometry x="720" y="760" width="280" height="180" as="geometry" />
        </mxCell>
        
        <mxCell id="sales-policy-title" value="💼 Sales Policy" style="text;html=1;strokeColor=none;fillColor=none;align=center;verticalAlign=middle;whiteSpace=wrap;rounded=0;fontSize=14;fontStyle=1;fontColor=#4D7C2F;" vertex="1" parent="1">
          <mxGeometry x="720" y="770" width="280" height="25" as="geometry" />
        </mxCell>
        
        <mxCell id="sales-policy-route" value="Route: /sales/policy" style="text;html=1;strokeColor=none;fillColor=none;align=left;verticalAlign=middle;whiteSpace=wrap;rounded=0;fontSize=10;fontColor=#666666;fontFamily=Courier New;" vertex="1" parent="1">
          <mxGeometry x="735" y="795" width="250" height="18" as="geometry" />
        </mxCell>
        
        <mxCell id="sales-policy-content" value="• Order ID input field&#xa;• Simulate Policy button&#xa;• Return risk prediction&#xa;• Risk score calculation&#xa;• Risk level indicator&#xa;• Approval recommendation" style="text;html=1;strokeColor=none;fillColor=none;align=left;verticalAlign=top;whiteSpace=wrap;rounded=0;fontSize=10;fontColor=#1A1A1A;" vertex="1" parent="1">
          <mxGeometry x="735" y="815" width="250" height="110" as="geometry" />
        </mxCell>
        
        <!-- INVENTORY AUDIT SCREEN -->
        <mxCell id="inventory-audit-screen" value="" style="rounded=1;whiteSpace=wrap;html=1;fillColor=#f8cecc;strokeColor=#b85450;strokeWidth=2;" vertex="1" parent="1">
          <mxGeometry x="1040" y="760" width="280" height="180" as="geometry" />
        </mxCell>
        
        <mxCell id="inventory-audit-title" value="📦 Inventory Audit" style="text;html=1;strokeColor=none;fillColor=none;align=center;verticalAlign=middle;whiteSpace=wrap;rounded=0;fontSize=14;fontStyle=1;fontColor=#A33A3A;" vertex="1" parent="1">
          <mxGeometry x="1040" y="770" width="280" height="25" as="geometry" />
        </mxCell>
        
        <mxCell id="inventory-audit-route" value="Route: /inventory/audit" style="text;html=1;strokeColor=none;fillColor=none;align=left;verticalAlign=middle;whiteSpace=wrap;rounded=0;fontSize=10;fontColor=#666666;fontFamily=Courier New;" vertex="1" parent="1">
          <mxGeometry x="1055" y="795" width="250" height="18" as="geometry" />
        </mxCell>
        
        <mxCell id="inventory-audit-content" value="• Detect Anomalies button&#xa;• Anomaly detection results&#xa;• Product anomaly table&#xa;• Severity indicators&#xa;• Anomaly score&#xa;• Timestamp &amp; description" style="text;html=1;strokeColor=none;fillColor=none;align=left;verticalAlign=top;whiteSpace=wrap;rounded=0;fontSize=10;fontColor=#1A1A1A;" vertex="1" parent="1">
          <mxGeometry x="1055" y="815" width="250" height="110" as="geometry" />
        </mxCell>
        
        <!-- STAFF CROSS-SELL SCREEN -->
        <mxCell id="staff-cross-sell-screen" value="" style="rounded=1;whiteSpace=wrap;html=1;fillColor=#fff2cc;strokeColor=#d6b656;strokeWidth=2;" vertex="1" parent="1">
          <mxGeometry x="1360" y="760" width="280" height="180" as="geometry" />
        </mxCell>
        
        <mxCell id="staff-cross-sell-title" value="🎯 Staff Cross-sell" style="text;html=1;strokeColor=none;fillColor=none;align=center;verticalAlign=middle;whiteSpace=wrap;rounded=0;fontSize=14;fontStyle=1;fontColor=#B8860B;" vertex="1" parent="1">
          <mxGeometry x="1360" y="770" width="280" height="25" as="geometry" />
        </mxCell>
        
        <mxCell id="staff-cross-sell-route" value="Route: /staff/cross-sell" style="text;html=1;strokeColor=none;fillColor=none;align=left;verticalAlign=middle;whiteSpace=wrap;rounded=0;fontSize=10;fontColor=#666666;fontFamily=Courier New;" vertex="1" parent="1">
          <mxGeometry x="1375" y="795" width="250" height="18" as="geometry" />
        </mxCell>
        
        <mxCell id="staff-cross-sell-content" value="• Customer ID input&#xa;• Get Recommendations button&#xa;• Product recommendations table&#xa;• Confidence scores&#xa;• Recommendation reasoning&#xa;• Sales support tool" style="text;html=1;strokeColor=none;fillColor=none;align=left;verticalAlign=top;whiteSpace=wrap;rounded=0;fontSize=10;fontColor=#1A1A1A;" vertex="1" parent="1">
          <mxGeometry x="1375" y="815" width="250" height="110" as="geometry" />
        </mxCell>
        
        <!-- LOGOUT -->
        <mxCell id="logout-action" value="🚪 Logout" style="rounded=1;whiteSpace=wrap;html=1;fillColor=#f5f5f5;strokeColor=#666666;fontStyle=1;fontSize=12;" vertex="1" parent="1">
          <mxGeometry x="740" y="1020" width="120" height="50" as="geometry" />
        </mxCell>
        
        <!-- Arrows from Dashboard to all screens -->
        <mxCell id="arrow-dashboard-segments" style="edgeStyle=orthogonalEdgeStyle;rounded=0;orthogonalLoop=1;jettySize=auto;html=1;strokeWidth=2;strokeColor=#9673a6;dashed=1;" edge="1" parent="1" source="dashboard-screen" target="marketing-segments-screen">
          <mxGeometry relative="1" as="geometry">
            <Array as="points">
              <mxPoint x="800" y="720" />
              <mxPoint x="220" y="720" />
            </Array>
          </mxGeometry>
        </mxCell>
        
        <mxCell id="arrow-dashboard-rules" style="edgeStyle=orthogonalEdgeStyle;rounded=0;orthogonalLoop=1;jettySize=auto;html=1;strokeWidth=2;strokeColor=#9673a6;dashed=1;" edge="1" parent="1" source="dashboard-screen" target="marketing-rules-screen">
          <mxGeometry relative="1" as="geometry">
            <Array as="points">
              <mxPoint x="800" y="720" />
              <mxPoint x="540" y="720" />
            </Array>
          </mxGeometry>
        </mxCell>
        
        <mxCell id="arrow-dashboard-policy" style="edgeStyle=orthogonalEdgeStyle;rounded=0;orthogonalLoop=1;jettySize=auto;html=1;strokeWidth=2;strokeColor=#82b366;dashed=1;entryX=0.5;entryY=0;entryDx=0;entryDy=0;" edge="1" parent="1" source="dashboard-screen" target="sales-policy-screen">
          <mxGeometry relative="1" as="geometry">
            <Array as="points">
              <mxPoint x="800" y="720" />
              <mxPoint x="860" y="720" />
            </Array>
          </mxGeometry>
        </mxCell>
        
        <mxCell id="arrow-dashboard-inventory" style="edgeStyle=orthogonalEdgeStyle;rounded=0;orthogonalLoop=1;jettySize=auto;html=1;strokeWidth=2;strokeColor=#b85450;dashed=1;" edge="1" parent="1" source="dashboard-screen" target="inventory-audit-screen">
          <mxGeometry relative="1" as="geometry">
            <Array as="points">
              <mxPoint x="800" y="720" />
              <mxPoint x="1180" y="720" />
            </Array>
          </mxGeometry>
        </mxCell>
        
        <mxCell id="arrow-dashboard-staff" style="edgeStyle=orthogonalEdgeStyle;rounded=0;orthogonalLoop=1;jettySize=auto;html=1;strokeWidth=2;strokeColor=#d6b656;dashed=1;" edge="1" parent="1" source="dashboard-screen" target="staff-cross-sell-screen">
          <mxGeometry relative="1" as="geometry">
            <Array as="points">
              <mxPoint x="800" y="720" />
              <mxPoint x="1500" y="720" />
            </Array>
          </mxGeometry>
        </mxCell>
        
        <!-- Arrow: Dashboard -> Logout -->
        <mxCell id="arrow-dashboard-logout" style="edgeStyle=orthogonalEdgeStyle;rounded=0;orthogonalLoop=1;jettySize=auto;html=1;strokeWidth=2;strokeColor=#CC0000;" edge="1" parent="1" source="dashboard-screen" target="logout-action">
          <mxGeometry relative="1" as="geometry" />
        </mxCell>
        
        <mxCell id="arrow-dashboard-logout-label" value="Logout" style="edgeLabel;html=1;align=center;verticalAlign=middle;resizable=0;points=[];fontSize=11;fontStyle=1;fontColor=#CC0000;backgroundColor=#FFFFFF;" vertex="1" connectable="0" parent="arrow-dashboard-logout">
          <mxGeometry x="-0.2" y="2" relative="1" as="geometry">
            <mxPoint as="offset" />
          </mxGeometry>
        </mxCell>
        
        <!-- Arrow: Logout -> Login -->
        <mxCell id="arrow-logout-login" style="edgeStyle=orthogonalEdgeStyle;rounded=0;orthogonalLoop=1;jettySize=auto;html=1;strokeWidth=2;strokeColor=#CC0000;" edge="1" parent="1" source="logout-action" target="login-screen">
          <mxGeometry relative="1" as="geometry">
            <Array as="points">
              <mxPoint x="1680" y="1045" />
              <mxPoint x="1680" y="310" />
            </Array>
          </mxGeometry>
        </mxCell>
        
        <mxCell id="arrow-logout-login-label" value="Return to Login" style="edgeLabel;html=1;align=center;verticalAlign=middle;resizable=0;points=[];fontSize=11;fontStyle=1;fontColor=#CC0000;backgroundColor=#FFFFFF;" vertex="1" connectable="0" parent="arrow-logout-login">
          <mxGeometry x="-0.2" y="2" relative="1" as="geometry">
            <mxPoint x="35" y="-10" as="offset" />
          </mxGeometry>
        </mxCell>
        
        <!-- Sidebar Navigation Note -->
        <mxCell id="sidebar-note" value="" style="rounded=1;whiteSpace=wrap;html=1;fillColor=#E8F5E9;strokeColor=#4CAF50;strokeWidth=2;dashed=1;" vertex="1" parent="1">
          <mxGeometry x="40" y="1100" width="1600" height="100" as="geometry" />
        </mxCell>
        
        <mxCell id="sidebar-note-icon" value="💡" style="text;html=1;strokeColor=none;fillColor=none;align=center;verticalAlign=middle;whiteSpace=wrap;rounded=0;fontSize=24;" vertex="1" parent="1">
          <mxGeometry x="60" y="1120" width="40" height="40" as="geometry" />
        </mxCell>
        
        <mxCell id="sidebar-note-title" value="Navigation Pattern:" style="text;html=1;strokeColor=none;fillColor=none;align=left;verticalAlign=middle;whiteSpace=wrap;rounded=0;fontSize=14;fontStyle=1;fontColor=#2E7D32;" vertex="1" parent="1">
          <mxGeometry x="110" y="1110" width="200" height="30" as="geometry" />
        </mxCell>
        
        <mxCell id="sidebar-note-content" value="All screens (except Login) include a SIDEBAR MENU that allows direct navigation between any feature screens. Users can jump from any screen to any other screen without returning to Dashboard first. The sidebar acts as a persistent navigation hub throughout the application." style="text;html=1;strokeColor=none;fillColor=none;align=left;verticalAlign=top;whiteSpace=wrap;rounded=0;fontSize=12;fontColor=#1A1A1A;" vertex="1" parent="1">
          <mxGeometry x="110" y="1140" width="1500" height="50" as="geometry" />
        </mxCell>
        
        <!-- Legend -->
        <mxCell id="legend-box" value="" style="rounded=1;whiteSpace=wrap;html=1;fillColor=#FAFAFA;strokeColor=#999999;strokeWidth=1;" vertex="1" parent="1">
          <mxGeometry x="40" y="1230" width="800" height="140" as="geometry" />
        </mxCell>
        
        <mxCell id="legend-title" value="Legend:" style="text;html=1;strokeColor=none;fillColor=none;align=left;verticalAlign=middle;whiteSpace=wrap;rounded=0;fontSize=14;fontStyle=1;fontColor=#1A1A1A;" vertex="1" parent="1">
          <mxGeometry x="60" y="1240" width="100" height="30" as="geometry" />
        </mxCell>
        
        <mxCell id="legend-1" value="Solid Arrow (→): Primary navigation flow" style="text;html=1;strokeColor=none;fillColor=none;align=left;verticalAlign=middle;whiteSpace=wrap;rounded=0;fontSize=11;fontColor=#1A1A1A;" vertex="1" parent="1">
          <mxGeometry x="80" y="1270" width="350" height="20" as="geometry" />
        </mxCell>
        
        <mxCell id="legend-2" value="Dashed Arrow (⇢): Sidebar menu navigation" style="text;html=1;strokeColor=none;fillColor=none;align=left;verticalAlign=middle;whiteSpace=wrap;rounded=0;fontSize=11;fontColor=#1A1A1A;" vertex="1" parent="1">
          <mxGeometry x="80" y="1295" width="350" height="20" as="geometry" />
        </mxCell>
        
        <mxCell id="legend-3" value="Purple: Marketing features (Segments, Rules)" style="text;html=1;strokeColor=none;fillColor=none;align=left;verticalAlign=middle;whiteSpace=wrap;rounded=0;fontSize=11;fontColor=#1A1A1A;" vertex="1" parent="1">
          <mxGeometry x="80" y="1320" width="350" height="20" as="geometry" />
        </mxCell>
        
        <mxCell id="legend-4" value="Green: Sales Policy simulation" style="text;html=1;strokeColor=none;fillColor=none;align=left;verticalAlign=middle;whiteSpace=wrap;rounded=0;fontSize=11;fontColor=#1A1A1A;" vertex="1" parent="1">
          <mxGeometry x="80" y="1345" width="350" height="20" as="geometry" />
        </mxCell>
        
        <mxCell id="legend-5" value="Red: Inventory &amp; Anomaly Detection" style="text;html=1;strokeColor=none;fillColor=none;align=left;verticalAlign=middle;whiteSpace=wrap;rounded=0;fontSize=11;fontColor=#1A1A1A;" vertex="1" parent="1">
          <mxGeometry x="450" y="1270" width="350" height="20" as="geometry" />
        </mxCell>
        
        <mxCell id="legend-6" value="Yellow: Staff &amp; Cross-sell recommendations" style="text;html=1;strokeColor=none;fillColor=none;align=left;verticalAlign=middle;whiteSpace=wrap;rounded=0;fontSize=11;fontColor=#1A1A1A;" vertex="1" parent="1">
          <mxGeometry x="450" y="1295" width="350" height="20" as="geometry" />
        </mxCell>
        
        <mxCell id="legend-7" value="Blue: Main Dashboard (central hub)" style="text;html=1;strokeColor=none;fillColor=none;align=left;verticalAlign=middle;whiteSpace=wrap;rounded=0;fontSize=11;fontColor=#1A1A1A;" vertex="1" parent="1">
          <mxGeometry x="450" y="1320" width="350" height="20" as="geometry" />
        </mxCell>
        
        <!-- Key Features Box -->
        <mxCell id="features-box" value="" style="rounded=1;whiteSpace=wrap;html=1;fillColor=#FFF9E6;strokeColor=#FFB74D;strokeWidth=2;" vertex="1" parent="1">
          <mxGeometry x="880" y="1230" width="760" height="140" as="geometry" />
        </mxCell>
        
        <mxCell id="features-title" value="🎯 Key Screen Features:" style="text;html=1;strokeColor=none;fillColor=none;align=left;verticalAlign=middle;whiteSpace=wrap;rounded=0;fontSize=14;fontStyle=1;fontColor=#E65100;" vertex="1" parent="1">
          <mxGeometry x="900" y="1240" width="200" height="30" as="geometry" />
        </mxCell>
        
        <mxCell id="features-content" value="✓ All data loaded dynamically via REST APIs (AJAX)&#xa;✓ Real-time analytics and ML model predictions&#xa;✓ Interactive charts using Chart.js&#xa;✓ Responsive Bootstrap 5 design&#xa;✓ Persistent sidebar navigation on all authenticated screens&#xa;✓ Session-based authentication with remember-me option" style="text;html=1;strokeColor=none;fillColor=none;align=left;verticalAlign=top;whiteSpace=wrap;rounded=0;fontSize=11;fontColor=#1A1A1A;" vertex="1" parent="1">
          <mxGeometry x="900" y="1270" width="720" height="90" as="geometry" />
        </mxCell>
        
        <!-- Back arrows from feature screens to dashboard (optional, showing sidebar can return) -->
        <mxCell id="return-arrow-1" style="edgeStyle=orthogonalEdgeStyle;rounded=0;orthogonalLoop=1;jettySize=auto;html=1;strokeWidth=1;strokeColor=#CCCCCC;dashed=1;dashPattern=1 4;" edge="1" parent="1" source="marketing-segments-screen" target="dashboard-screen">
          <mxGeometry relative="1" as="geometry">
            <Array as="points">
              <mxPoint x="60" y="850" />
              <mxPoint x="60" y="570" />
            </Array>
          </mxGeometry>
        </mxCell>
        
        <mxCell id="return-arrow-2" style="edgeStyle=orthogonalEdgeStyle;rounded=0;orthogonalLoop=1;jettySize=auto;html=1;strokeWidth=1;strokeColor=#CCCCCC;dashed=1;dashPattern=1 4;" edge="1" parent="1" source="staff-cross-sell-screen" target="dashboard-screen">
          <mxGeometry relative="1" as="geometry">
            <Array as="points">
              <mxPoint x="1660" y="850" />
              <mxPoint x="1660" y="570" />
            </Array>
          </mxGeometry>
        </mxCell>
        
        <mxCell id="return-label" value="(All screens can return to Dashboard via sidebar)" style="text;html=1;strokeColor=none;fillColor=none;align=center;verticalAlign=middle;whiteSpace=wrap;rounded=0;fontSize=9;fontColor=#999999;fontStyle=2;" vertex="1" parent="1">
          <mxGeometry x="20" y="570" width="40" height="60" as="geometry" />
        </mxCell>
        
      </root>
    </mxGraphModel>
  </diagram>
</mxfile>
